<svg width="30" height="30" viewBox="0 0 30 30" fill="none" xmlns="http://www.w3.org/2000/svg">
<path d="M5.71874 5.71877C6.07036 5.36727 6.54719 5.1698 7.04437 5.1698C7.54155 5.1698 8.01838 5.36727 8.36999 5.71877L15 12.3488L21.63 5.71877C21.9836 5.37723 22.4573 5.18824 22.9489 5.19251C23.4405 5.19678 23.9108 5.39397 24.2584 5.74161C24.606 6.08925 24.8032 6.55953 24.8075 7.05115C24.8118 7.54277 24.6228 8.0164 24.2812 8.37002L17.6512 15L24.2812 21.63C24.6228 21.9837 24.8118 22.4573 24.8075 22.9489C24.8032 23.4405 24.606 23.9108 24.2584 24.2584C23.9108 24.6061 23.4405 24.8033 22.9489 24.8075C22.4573 24.8118 21.9836 24.6228 21.63 24.2813L15 17.6513L8.36999 24.2813C8.01637 24.6228 7.54274 24.8118 7.05112 24.8075C6.5595 24.8033 6.08922 24.6061 5.74158 24.2584C5.39394 23.9108 5.19675 23.4405 5.19248 22.9489C5.18821 22.4573 5.3772 21.9837 5.71874 21.63L12.3487 15L5.71874 8.37002C5.36724 8.01841 5.16977 7.54158 5.16977 7.0444C5.16977 6.54722 5.36724 6.07039 5.71874 5.71877Z" fill="white" fill-opacity="0.7"/>
</svg>
