<svg xmlns="http://www.w3.org/2000/svg" width="30" height="31" viewBox="0 0 30 31" fill="none">
  <path d="M26.1261 12.8125L26.8636 25.175C26.8886 25.5125 26.7261 25.7375 26.6386 25.8375C26.5386 25.95 26.3261 26.125 25.9761 26.125H22.5636L25.2636 12.8125H26.1261ZM27.5011 8L27.4886 8.025C27.5136 8.325 27.4886 8.6375 27.4136 8.95L18.2011 25.8625C17.9011 27.125 16.7761 28 15.4761 28H25.9761C27.5886 28 28.8636 26.6375 28.7386 25.025L27.5011 8Z" fill="white" fill-opacity="0.7"/>
  <path d="M14.3128 3.30171C14.4378 2.80171 14.1253 2.28921 13.6253 2.16421C13.1253 2.05171 12.6128 2.35171 12.4878 2.85171L11.8628 5.43921H13.7878L14.3128 3.30171Z" fill="white" fill-opacity="0.7"/>
  <path d="M22.5636 3.26074C22.6761 2.74824 22.3511 2.26074 21.8386 2.14824C21.3386 2.03574 20.8386 2.36074 20.7261 2.87324L20.1636 5.46074H22.0886L22.5636 3.26074Z" fill="white" fill-opacity="0.7"/>
  <path d="M27.2748 7.16426C26.8623 6.16426 25.8873 5.45176 24.6873 5.45176H22.0873L21.3873 8.68926C21.2873 9.12676 20.8998 9.42676 20.4748 9.42676C20.4123 9.42676 20.3373 9.42676 20.2748 9.40176C19.7748 9.28926 19.4498 8.78926 19.5498 8.28926L20.1623 5.43926H13.7873L12.9998 8.68926C12.8998 9.11426 12.5123 9.40176 12.0872 9.40176C12.0122 9.40176 11.9372 9.38926 11.8622 9.37676C11.3622 9.25176 11.0497 8.75176 11.1747 8.23926L11.8497 5.42676H9.31219C8.08719 5.42676 6.99969 6.22676 6.63719 7.40176L1.37469 24.3392C0.824696 26.1517 2.16219 28.0017 4.04969 28.0017H20.4748C21.7748 28.0017 22.8998 27.1267 23.1998 25.8642L27.4123 8.95176C27.4873 8.63926 27.5123 8.32676 27.4873 8.02676C27.4623 7.72676 27.3998 7.42676 27.2748 7.16426ZM18.3748 21.4392H8.37469C7.86219 21.4392 7.43719 21.0142 7.43719 20.5017C7.43719 19.9892 7.86219 19.5642 8.37469 19.5642H18.3748C18.8873 19.5642 19.3123 19.9892 19.3123 20.5017C19.3123 21.0142 18.8873 21.4392 18.3748 21.4392ZM19.6248 16.4392H9.62469C9.11219 16.4392 8.68719 16.0142 8.68719 15.5017C8.68719 14.9892 9.11219 14.5642 9.62469 14.5642H19.6248C20.1373 14.5642 20.5623 14.9892 20.5623 15.5017C20.5623 16.0142 20.1373 16.4392 19.6248 16.4392Z" fill="white" fill-opacity="0.7"/>
</svg>