<svg width="30" height="30" viewBox="0 0 30 30" fill="none" xmlns="http://www.w3.org/2000/svg">
<path d="M28.125 21.5625C29.1605 21.5625 30 22.402 30 23.4375C30 24.473 29.1605 25.3125 28.125 25.3125H1.875C0.839467 25.3125 0 24.473 0 23.4375C0 22.402 0.839467 21.5625 1.875 21.5625H28.125ZM28.125 13.125C29.1605 13.125 30 13.9645 30 15C30 16.0355 29.1605 16.875 28.125 16.875H1.875C0.839467 16.875 0 16.0355 0 15C0 13.9645 0.839467 13.125 1.875 13.125H28.125ZM28.125 4.6875C29.1605 4.6875 30 5.52697 30 6.5625C30 7.59803 29.1605 8.4375 28.125 8.4375H1.875C0.839467 8.4375 0 7.59803 0 6.5625C0 5.52697 0.839467 4.6875 1.875 4.6875H28.125Z" fill="white" fill-opacity="0.7"/>
</svg>
