<svg width="35" height="35" viewBox="0 0 35 35" fill="none" xmlns="http://www.w3.org/2000/svg">
<path d="M8.77042 11.6756C8.93706 10.3577 10.6499 8.56645 12.0092 8.76521L12.007 8.76304C13.3299 9.01443 14.3771 11.2913 14.9676 12.3151C15.386 13.0579 15.1143 13.8106 14.7241 14.1281C14.1976 14.5525 13.3744 15.1379 13.5471 15.7258C13.8542 16.7708 17.5 20.4167 19.2932 21.4531C19.9719 21.8454 20.4641 20.8107 20.8844 20.2806C21.1897 19.8729 21.943 19.6292 22.6841 20.0317C23.791 20.6763 24.8337 21.4254 25.7979 22.2688C26.2795 22.6713 26.3925 23.2661 26.0588 23.8948C25.4711 25.0021 23.7713 26.4623 22.5374 26.1656C20.3823 25.6474 11.6667 22.2688 8.86715 12.4804C8.70971 12.0174 8.74935 11.8423 8.77042 11.6756Z" fill="white" fill-opacity="0.7"/>
<path fill-rule="evenodd" clip-rule="evenodd" d="M17.5 33.5417C15.7156 33.5417 14.7283 33.3502 13.125 32.8125L10.0544 34.3478C8.11505 35.3175 5.83331 33.9073 5.83331 31.739V28.4375C2.69287 25.5092 1.45831 22.1327 1.45831 17.5C1.45831 8.64044 8.64041 1.45834 17.5 1.45834C26.3595 1.45834 33.5416 8.64044 33.5416 17.5C33.5416 26.3595 26.3595 33.5417 17.5 33.5417ZM8.74998 27.1692L7.82241 26.3043C5.3825 24.0293 4.37498 21.4858 4.37498 17.5C4.37498 10.2513 10.2512 4.37501 17.5 4.37501C24.7488 4.37501 30.625 10.2513 30.625 17.5C30.625 24.7488 24.7488 30.625 17.5 30.625C16.0625 30.625 15.3883 30.4952 14.0524 30.0472L12.904 29.6621L8.74998 31.739V27.1692Z" fill="white" fill-opacity="0.7"/>
</svg>
